<svg width="96" height="96" viewBox="0 0 16 16" xmlns="http://www.w3.org/2000/svg" shape-rendering="crispEdges">
  <rect width="16" height="16" fill="none"/>
  <rect x="4" y="1" width="7" height="1" fill="#111111"/>
  <rect x="3" y="2" width="1" height="2" fill="#111111"/>
  <rect x="4" y="2" width="7" height="1" fill="#5a3f3b"/>
  <rect x="11" y="2" width="1" height="1" fill="#111111"/>
  <rect x="3" y="4" width="1" height="4" fill="#111111"/>
  <rect x="4" y="3" width="2" height="1" fill="#f1c8a6"/>
  <rect x="6" y="3" width="2" height="1" fill="#111111"/>
  <rect x="8" y="3" width="3" height="1" fill="#5a3f3b"/>
  <rect x="11" y="3" width="1" height="5" fill="#111111"/>
  <rect x="4" y="4" width="6" height="4" fill="#f1c8a6"/>
  <rect x="5" y="5" width="1" height="2" fill="#111111"/>
  <rect x="8" y="5" width="1" height="2" fill="#111111"/>
  <rect x="2" y="5" width="1" height="2" fill="#f1c8a6"/>
  <rect x="12" y="5" width="1" height="2" fill="#f1c8a6"/>
  <rect x="6" y="7" width="2" height="1" fill="#111111"/>
  <rect x="4" y="8" width="6" height="2" fill="#f1c8a6"/>
  <rect x="5" y="10" width="4" height="1" fill="#111111"/>
  <rect x="6" y="11" width="2" height="1" fill="#f1c8a6"/>
  <rect x="3" y="12" width="10" height="3" fill="#111111"/>
  <rect x="4" y="12" width="8" height="2" fill="#4bb8cc"/>
</svg>
